<svg xmlns="http://www.w3.org/2000/svg" class="topNav__logoLarge" viewBox="0 0 493.8 143.5" width="400" aria-labelledby="logoTitle">
                <title id="logoTitle">Hargreaves Lansdown</title>
<path d="M243.8 85.9c-4.7-3.8-11.2-5.4-21.1-5.4h-22l3.1 10.6v50.7h18c7.1 0 12.7-.9 16.9-2.9 9.4-4.2 13.8-13.1 13.8-27.9 0-12.3-2.7-20.3-8.7-25.1zm-9.7 44.5c-2.8 1.8-7 2.8-12 2.8h-6.9V89h5.8c6.4 0 10.8 1 13.6 3 4.3 3 6 8.4 6 18.8.1 10.7-1.9 16.5-6.5 19.6zm129.7-7.8c-.1.5-.3 1.1-.4 1.7-.1-.5-.3-1.1-.5-1.7l-12.2-42.2h-10.9l3.3 11-9.8 31.6c-.1.4-.2.7-.3 1.1-.1-.5-.2-.9-.4-1.4l-12.4-42.4h-11.3l18.3 61.2h10.2l10.4-34.2 9.9 34.2h10.6L386 80.3h-10.8l-11.4 42.3zM75 80.4H57l3.1 10.4-16.7 50.8h11.3l4.2-13.1h22l4.5 13.1h11.7L75 80.4zm-13.1 38.8l7.2-22.5c.2-.4.3-1 .4-1.5.1.6.3 1.1.5 1.6l7.8 22.4H61.9zm222-39.6c-16.4 0-25.4 11.2-25.4 31.4 0 20.3 9 31.4 25.4 31.4s25.4-11.2 25.4-31.4-9-31.4-25.4-31.4zm0 53.9c-5.8 0-13.6-2.3-13.6-22.4s7.8-22.4 13.6-22.4 13.6 2.3 13.6 22.4-7.7 22.4-13.6 22.4zM3.2 80.5v61.2h35.1l2.8-8.5H14.6V80.5zm135.9 40.9c-.5-.9-1.1-1.8-1.9-2.9l-27.3-38.1h-11l3.1 10.5v50.8h10v-40.9c.5.9 1 1.8 1.7 2.7l27.3 38.1h8.1V80.3h-10v41.1zm289 .1c-.5-.9-1.1-1.8-1.9-2.9l-27.3-38.1H391v61.3h10v-40.9c.5.9 1 1.8 1.7 2.7l27.3 38.1h8.1V80.4h-13.2l3.1 10.5.1 30.6zm-248.4-15.7c-6.3-2.2-11.8-4.2-11.8-9.8 0-6.6 7.1-7.6 11.3-7.6 3.8 0 7.9.7 11.8 2.1l2.8-8.4-.6-.2c-3.9-1.3-9.9-2.2-14.6-2.2-13.3 0-21.6 6.7-21.6 17.6 0 12.3 9.3 15.5 17.5 18.4 6.5 2.3 12.1 4.3 12.1 10.2 0 5.1-4.3 8.1-11.7 8.1-4.7 0-10.2-1.4-14.7-3.6l-2.9 8.7.5.2c5.2 2.2 11.4 3.5 17.4 3.5 7.5 0 13.5-1.9 17.3-5.5 3.2-3.1 4.9-7.3 4.9-12.3.1-13-9.4-16.3-17.7-19.2M86.3 1.5h-18L71.4 12 54.7 62.9H66l4.2-13.1h22l4.5 13.1h11.7L86.3 1.5zM73.1 40.4l7.2-22.5c.2-.4.3-1 .4-1.6.1.6.3 1.1.5 1.6L89 40.4H73.1zM340.9 1.5h-18L326 12l-16.7 50.9h11.3l4.2-13.1h22l4.5 13.1H363L340.9 1.5zm-13.1 38.9l7.2-22.5c.2-.4.3-1 .4-1.6.1.6.3 1.1.5 1.6l7.8 22.5h-15.9zm58.9 22.5l18.2-61.4h-11.3L382 44.6l-.6 2.1-.6-2.1-14.6-43.1h-11.9l20.9 61.4h11.5zM191 32.3l2.4 8.1h6.2v11c-3.2 2.3-6.5 3.3-10.4 3.3-10.1 0-15-7.6-15-23.2 0-14.1 5-21.9 14-21.9 5.9 0 9.2 2.9 10.9 9.5l.2.7 11.5-2-.1-.8C208.7 6.6 200.6.6 188.5.6c-16.5 0-26 11.5-26 31.5 0 20.4 8.9 31.6 25.1 31.6 5.9 0 10.8-1.4 14.7-4.3l2 3.4h6.7V32.3h-20zm-34.1 22c-1.9 0-3.5-.7-4.8-2.9l.9 1.6-1-1.7-.2-.4-4.8-8.6-2-3.6c8.1-2.7 12.4-9 12.4-18.5 0-6.3-2.3-11.3-6.7-14.4-4-2.9-9.5-4.2-17.8-4.2h-22.6l3.1 10.6V63h11.4V40.4h8.6l2.3 4 1.6 2.8 4.7 8c3.4 5.7 6.3 8.5 11.4 8.5 2.2 0 4-.6 5.9-1.3v-8.5c-.9.2-1.7.4-2.4.4zm-23.3-22h-8.9V10.1h7.3c5.6 0 9.1.8 11.1 2.7 1.8 1.7 2.7 4.5 2.7 8 0 7.8-3.9 11.5-12.2 11.5zm128.6 22c-1.9 0-3.5-.7-4.8-2.9l.9 1.6-1-1.7-.2-.4-4.8-8.6-2-3.6c8.1-2.7 12.4-9 12.4-18.5 0-6.3-2.3-11.3-6.7-14.4-4-2.9-9.5-4.2-17.8-4.2h-22.6l3.1 10.6V63h11.4V40.4h8.6l2.3 4 1.6 2.8 4.7 8c3.4 5.7 6.3 8.5 11.4 8.5 2.2 0 4-.6 5.9-1.3v-8.5c-.8.2-1.6.4-2.4.4zm-23.2-22h-8.9V10.1h7.3c5.6 0 9.1.8 11.1 2.7 1.8 1.7 2.7 4.5 2.7 8-.1 7.8-3.9 11.5-12.2 11.5zM37.9 1.5v26.2H14.7V1.5H.2l3.1 10.6v50.8h11.4V37h23.2v25.9h11.4V1.5zM475.2 27c-6.3-2.2-11.8-4.2-11.8-9.8 0-6.6 7.1-7.6 11.3-7.6 3.8 0 7.9.7 11.8 2.1l2.8-8.4-.6-.2c-3.9-1.3-9.9-2.2-14.6-2.2-13.3 0-21.6 6.7-21.6 17.6 0 12.3 9.3 15.6 17.5 18.5 6.5 2.3 12.1 4.3 12.1 10.2 0 5.2-4.3 8.1-11.7 8.1-4.7 0-10.2-1.4-14.7-3.6l-2.9 8.7.5.2c5.2 2.2 11.4 3.5 17.4 3.5 7.5 0 13.5-1.9 17.3-5.5 3.2-3.1 4.9-7.3 4.9-12.4 0-13-9.4-16.3-17.7-19.2M409.9 1.4v61.5h35.7l2.8-8.6h-27.2V35.9H442l2.5-8.4h-23.3V9.9H447l2.5-8.5zm-137.5 0v61.5h31.9l2.8-8.6h-23.4V35.9h20.8l2.4-8.4h-23.2V9.9h25.8l2.5-8.5z" fill="#071d49"></path></svg>