<svg id="Layer_1" xmlns="http://www.w3.org/2000/svg" viewBox="0 0 1000 483.1"><style>.st1{fill:#fffffe}.st3{fill:#636463}</style><g id="Tool---Option-1"><g id="Graduate-Landing-Page-Copy-2" transform="translate(-216 -12)"><g id="Header" transform="translate(212)"><g id="LBG_3P_HORIZ_POS_CMYK_v2" transform="translate(4 12)"><path id="Fill-1" fill="#007a4a" d="M0 483.1h1000V0H0z"/><path id="Fill-3" class="st1" d="M290.1 278.3c-1.9-.6-5-1.3-8.4-1.3-11.7 0-20.4 7.6-20.4 18.7 0 10.6 7.8 18.9 20.1 18.9 3.2 0 7.3-.7 9.6-1.3h.1v-18.6h-6.2v13.9c-.8.1-2.3.3-3.7.3-8 0-13.4-6-13.4-13.2-.1-7.1 5.6-12.8 13.9-12.8 2.7 0 5.9.7 8.4 1.5v-6.1zm51.5 0c-1.9-.6-5.1-1.3-8.4-1.3-11.7 0-20.4 7.6-20.4 18.7 0 10.6 7.8 18.9 20.1 18.9 3.2 0 7.3-.7 9.6-1.3h.1v-18.6h-6.2v13.9c-.8.1-2.3.3-3.7.3-8 0-13.4-6-13.4-13.2-.1-7.1 5.6-12.8 13.9-12.8 2.7 0 5.9.7 8.4 1.5v-6.1zm61.8 30.4c7.4 0 12.7-5.9 12.7-13.1 0-7.1-5.4-13-12.7-13-7.4 0-12.8 5.9-12.7 13-.1 7.3 5.3 13.1 12.7 13.1zm0-31.9c10.8 0 19.2 8.3 19.2 18.8 0 10.6-8.4 18.9-19.2 18.9-10.8 0-19.2-8.3-19.2-18.9-.1-10.4 8.3-18.8 19.2-18.8zm-303.9 7.7l5.4 13.8h-11l5.6-13.8zm11.7 29.6h6.8l-15.5-36.9h-6.3L81 314.1h6.7l4-10.1h15.4l4.1 10.1zM247 277.2v25.6l-20.5-25.6h-5.8V314h6.2v-26.9l21.4 26.9h4.8v-36.8H247zm-183.1 5.7c3 0 5.8 1.5 5.8 4.6 0 3-2.3 4.9-5.5 4.9h-7v-9.6h6.7zm300.7.1c3.8 0 6.5 1.6 6.5 5.5 0 3.6-2.5 5.5-6.2 5.5h-6v-11h5.7zm116.6.1c4.1 0 6.6 2.4 6.6 6s-2.6 5.8-7 5.8h-5.2v-11.7h5.6zM64.8 298c3.6 0 6 2.1 6 5.1 0 3.3-2.5 5.2-7.2 5.2h-6.5V298h7.7zm138.6 16.1h6.4v-36.8h-6.4v36.8zM50.6 158.2v82.2h53v-13.5H64.9v-68.6H50.6zm67.9 0v82.2h53v-13.5h-38.7v-68.6h-14.3zm210.4 0l-22.5 37.9-24.1-37.9h-16.6l32.6 50-19.9 32.1h15.9l50.6-82.2h-16zm53.9 13.3c16.6 0 28.4 11.9 28.4 27.8 0 15.8-11.7 28-28.4 28h-12.4v-55.8h12.4zm66.1-8.5c-5.9 4.1-8.9 10.1-8.9 17.2 0 13.8 11 20 22.3 23.4 10.1 3.2 18.3 5.7 18.3 13.8 0 7.8-7.7 11.2-15 11.2-9.4 0-18.3-3.7-23.7-7.1l-.5-.2v14h.2c4.9 2.8 14.1 6 24.1 6 14.8 0 28.6-9.4 28.6-24.3 0-13.8-9.6-20.4-23-24.6-13.8-4.1-18-7.1-18-12.4 0-7.6 8-9.9 15.2-9.9 5.6 0 13.1 1.4 19.9 4.6h.2v-13.1c-6.3-2.8-13.1-4.1-21.1-4.1-6.9 0-13.7 2.1-18.6 5.5zm-229.6 65.5c16.4 0 28.4-13.1 28.4-29.2 0-15.8-12-28.9-28.4-28.9-16.2 0-28.6 13.1-28.4 28.9 0 16.1 12 29.2 28.4 29.2zm137.1-70.3v82.2h26.5c23.9 0 43.1-17.4 43.1-41.1 0-23.6-19.4-41.1-43.1-41.1h-26.5zm-137.1-.9c23.9 0 42.9 18.6 42.9 42 0 23.6-18.7 42.2-42.9 42.2-24.4 0-42.9-18.6-42.9-42.2 0-23.4 19-42 42.9-42zm234 119.9v23.4c0 4.8-2.8 8.1-8.1 8.1-5 0-8.2-3.3-8.2-8.1v-23.4h-6.3v23.6c0 8.4 5.8 13.8 14.5 13.8 8.6 0 14.5-5.4 14.5-13.8v-23.6h-6.4zm-264.1 0l-15.7 17.3v-17.3h-6.3V314h6.3v-17.6l16 17.6h8.5l-17.4-18.8 16.5-18h-7.9zm280.3 0V314h6.1v-13.2h5.5c7.5 0 13.1-4.5 13.1-11.9 0-7.1-5.4-11.7-12.7-11.7h-12zm-319.4 0v25.6l-20.5-25.6h-5.8V314h6.3v-26.9l21.3 26.9h4.8v-36.8h-6.1zm202.5 0V314h6.3v-14.5h5.2l8.2 14.5h7.2l-9-15.4c4.4-1.6 7.2-5.6 7.2-10.2 0-7.3-5.2-11.2-12.6-11.2h-12.5zm-301.8 0V314H64c7.4 0 13.4-3.2 13.4-10.7 0-3.8-2-6.9-5.6-9 2.2-1.1 4.2-3.9 4.2-7.3 0-6.5-5.2-9.9-11.6-9.9H50.8z"/><path id="Fill-4" class="st1" d="M550.6 455.1h415.7V39.3H550.6z"/><path id="Fill-5" d="M914 249.3c6.4 4.7 13 8.1 13 15.6 0 2.2-2.8 4.3-8.9 4.3-4.7 0-9.8-1.3-12.2-4.7-1.9-2.6.9-6-.9-8.5-1.3-2.1-4.3-1.1-6.2-2.1-2.3-1.3-2.6-2.3-4.1-5.5-1.7-3.8-7.5-10.2-14.3-17.1-5.7-5.8-11.9-8.7-14.7-8.5-1.9.2-2.6.2-4.5.2-4.9 0-9.2 4.7-16.2 7.7-4.9 2.1-7.7 3.4-10.9 3.8l-1.1 1.3 6.4-.2c6 0 13.9-.9 19.8-.9 6.2 0 9.2 5.5 11.5 11.3 4.7 11.7 11.7 28.6 20 42.7 4 6.6 7.5 10.9 7.5 19 0 2.6-.2 6-3.6 6-4.7 0-16.6-4.9-16.6-10.3 0-4.1 3.2-5.8 3.2-9.8 0-2.6-3.8-2.1-4.7-4.5-3-12.6-6.6-25-13.7-32.4-3.6-3.8-4.1-5.5-7.7-5.5-1.9 0-3.8.4-5.6 1.1-9.8 3.6-22.8 14.5-39 19.4-6.2 1.9-7.2-1.7-13.6-.4h.4c-5.1 1.1-9.2 4-16.2 6-9.8 2.8-26.6 4-40.1 2.3-9.6-1.3-22-3.2-27.3-3-4 11.7-12.8 27.1-25.6 33.1-6.8 3-9 7.2-6.8 14.9 2.6 9.6 11.1 16.6 15.6 24.7 4.1 7 10.7 18.1 17.7 21.8 7 3.6 11.3 8.9 11.3 13.4 0 2.1-.9 3.4-3 3.4h-14.1c-2.1 0-3.2-1.3-3.6-2.1-1.9-3.6-.6-7-3.2-10.2-1.9-2.3-3.4-1.7-5.8-3.6-4.3-4-1.1-6.4-4.3-11.5-8.9-14.1-12.8-17.5-20.2-27.5-4.3-5.3-9.4-7.9-9.4-14.9 0-8.5 8.5-10 8.3-18.6-5.5 4.1-11.9 7.3-21.8 8.6-1.3.2-4.7 2.8-6.2 4.5-3.4 3.4-4.7 6.8-5.1 11.9-1.1 11.5-3.4 23.2-1.9 34.7 1.9 7.5 3.2 10 9.4 14.1 3.8 2.5 8.3 6.2 8.7 11.5 0 1.5-.4 3.2-2.6 3.2H636c-1.5 0-2.8-1.1-3.2-1.9-1.7-3-.6-5.1-1.3-8.5-1.5-7-9.4-6.6-9.4-13.8 0-2.2 1.3-4.9 1.5-9.4.4-9.8 3.4-25.6.4-44.7-1.3-11.1 10.2-11.5 16.2-21.4 3.6-5.6 2.6-3.2 4.7-7.2 2.1-4.3 1.7-7.2 1.5-9.8 0-3.2-3.2-10-1.1-23.9.9-6.2 3.8-12.4 7.9-17.7 0-.2 0-1.1-1.3-1.1-6 .4-6-1.1-10-1.1-3.8 0-6.8 3.2-7.5 4.9-1.9-.9-2.8-3-2.8-4.3 0-2.1.4-4 2.6-6.2.9-.9 0-1.3-1.1-1.3-4.7 0-9.2 5.7-10.2 9.8-2.8-.4-3-4-4.3-4-1.3 0-2.1 1.9-2.1 3.8 0 13.6 22.2 16.6 22.2 34.5 0 20.7-24.9 16.4-24.9 23.9 0 1.5 1.1 2.8 3 3.6-.9 1.9-3 2.8-5.3 2.8-5.5 0-9.6-4-9.6-9.6 0-11.3 15.1-11.5 15.1-20.1 0-4-2.5-5.3-4.9-7.2-14.5-10.2-22.6-20.5-22.6-37.3 0-18.1 12.6-32 29-32 23.9 0 24.5 27.5 46.3 29.9 8.1-5.5 17.7-8.7 27.1-8.7 14.1 0 20.2 3.6 35.2 3.6 6 0 16-1.7 27.9-9.8 4.5-3 6.4-3.6 10.4-7.3 9.4-8.1 18.1-23.9 18.1-35.2v.6c0-3.6-.9-5.8-2.6-5.8-5.1 0-9.6 4.7-14.7 9.6-3.2 3.4 1.7 4.9-5.5 8.9-2.6 1.3-5.5-1.1-8.3-1.1-5.8 0-8.3-6.8-8.3-12.8 0-3 2.3-3.8 3.6-6.6 3-5.8 2.8-7.9 5.5-13.6 1.7-3.8 4.7-6.4 4.5-9.2 0-1.1-.9-1.7-.9-2.8 0-5.8 7.7-9.6 7.7-15.4 0-3.2-3.6-4.7-4.5-7.2-.9-2.6-.2-3.2-.2-3.2.2-.4.6-.6 1.1-.6 3 0 4.3 3.2 7 4.9.2-3.8-1.1-4.7-1.1-7.5 0-1.5-.2-3.8 1.3-3.8 1.9 0 1.7 2.6 3.4 3.8 2.1 1.7 4 1.5 6.4 3 3 1.9 4.7 5.1 5.7 5.3 3 .4 3.8-3.2 2.3-5.3 3.4-.2 6.8 2.6 11.3 2.6 7 0 9.4 1.9 10.7 3 4.5 3.8 5.3 6.8 10.2 6.8 2.6 0 3.8-2.1 4.5-3 3.4 2.6 3.6 8.9 0 14.3 1.5 4.5 7.9 4.9 10.9 7.1 3 2.1 2.6 3.2 4.7 4.5 1.7 1.1 3.2.9 4.5 0 1.5 6-3.6 11.3-9.8 12.1.2 7.7 8.3 12.4 11.9 14.3-2.1 4.7-6 6.2-9.4 7 1.1 4.7 6.2 11.5 3.6 17.7-2.3-1.1-5.7 0-5.7 3.4 0 3.8 4.9 5.8-.2 8.6-2.4 1.3-2.8 4.7 1.5 7.9 5.5-1.5 10.9-1.3 17-1.3 3.8 0 9-1.1 12.4-1.1 6.4 0 10.3 2.6 14.9 7.7 12.3 12.6 22.9 26 35.1 35.2" fill="#1a1919"/><path id="Fill-6" class="st3" d="M596.5 213.5c2.7 0 7.7-13.5 17.9-13.5 3 0 3.6 1 3.6 2 0 1.8-3.4 3.5-3.4 5.9 0 .4.2 1 1.1 1 2.5 0 4.3-4.9 14.5-4.9 2.7 0 5 .2 7.5.8 1.1.2 3.4 1.2 2.5-1.6-2.5-6.3-10.2-12.3-21.1-12.3-10.9 0-22.2 8.8-23.6 19.4-.1 2-.1 3.2 1 3.2"/><path id="Fill-7" class="st3" d="M778 129.6c-2.7-1.1-3.1-2.6-2.3-6 .6-3.6.8-5.1-.8-5.5-1.4-.4-3.3.4-5.1 2.6-1.6 2.3-4.3 5.1-5.1 7.4-.8 3 2.7 2.6.2 7.5-4.3 8.1-5.3 9.8-7.4 15.5-1.8 5.9-3.3 6.8-4.3 8.7-1.2 1.7 1.6 1.9 4.9.9 3.5-1.3 3.7 3 2.5 5.9-1 2.1-.2 3 2.7.6 2.7-2.1-1.4-3.8-.4-10.6 1-6.2 2.3-9.6 6-15.7 3.1-5.3 5.8-9.1 11.1-7.2 1.9 1 .9-2.9-2-4.1"/><path id="Fill-8" class="st3" d="M892.2 309c.9 0 1.1-1.4 1.1-2.6 0-2.7-1.4-6.9-3.3-8.7-.5 4.1-2.3 6.9-2.3 8.7-.1 1.4 3.3 2.6 4.5 2.6"/><path id="Fill-9" class="st3" d="M918 264c1.3 0 3.3-.7 3.3-2.2 0-2.9-3-7.9-5.6-9.1 1.8 5.1 0 11.3 2.3 11.3"/><path id="Fill-10" class="st3" d="M800 209.1c23.9 11 22.4 31.1 24.5 26 .8-2.1 4-12.1-4.4-21.6-6.6-7.6-9.1-5.7-6.6-12.1 10.4-25.2 16.9-63.3-14.2-76.7-3.6-1.5-6.6-1.5-6.6-.8 0 .6 3.4 1.7 7.4 4.4 20.7 13.8 14.4 51.2-4.7 69.4-6.2 6.3-3.2 7.8 4.6 11.4"/><path id="Fill-11" class="st3" d="M718.3 387.6c1.3 0 .6-3.2.2-4.6-1.1-3.2-3.2-5.3-5-6.7.5 3.2.6 11.2 2.6 11.2h2.2"/><path id="Fill-12" class="st3" d="M645.5 387.6c1.2 0 .3-3.3-.1-4.7-1.1-3.3-3.2-5.2-4.9-6.6.5 3.3.8 11.2 2.6 11.2h2.4"/><path id="Fill-13" class="st3" d="M737.5 235.3c13.5-1.4 15.6-4.1 18-13.2 1.1-4.3 4.6-8.7 7.6-11.7 2-1.9 3.9-3.5 5.9-6.4.7-1.2 1.1-2.1 0-1.7-1.5 1-6.1 3.7-8 5-9.6 6-24.1 8.9-30 8.9-12.4 0-23.1-3.3-34.4-3.3-33.9 0-46.5 23.7-44.8 37.5.2 2.1.6 2.3 1.5 2.3 2.4 0 4.4-8.2 12.8-15.3 12.4-10.5 25.9-16.5 45-16.5 13.9 0 19.6 4.1 19.6 5.6 0 3.1-5.9 3.3-5.5 6.4.1 1.1 3.4 3.4 12.3 2.4"/></g></g></g></g></svg>