<?xml version="1.0" encoding="utf-8"?>
<!-- Generator: Adobe Illustrator 19.1.0, SVG Export Plug-In . SVG Version: 6.00 Build 0)  -->
<svg version="1.1" id="Layer_1" xmlns="http://www.w3.org/2000/svg" xmlns:xlink="http://www.w3.org/1999/xlink" x="0px" y="0px"
	 viewBox="266 20 820 250" enable-background="new 266 20 820 250" xml:space="preserve">
<g>
	<path fill="#004346" d="M279.5,125.4c0,13.3,7.8,19.3,24.1,22.9l12.5,2.7c14.7,3.3,17.6,6.7,17.6,13.8c0,8.6-7.5,14-21.1,14
		c-14.2,0-21.5-6.1-22.3-18.6h-13.2c0,19.3,13.7,30.2,35.2,30.2c23.5,0,34.9-11.9,34.9-27.3c0-13.8-8.2-20.5-22.2-23.5l-13.1-3
		c-15-3.3-19.3-5.2-19.3-12.9c0-7.4,5.6-13.3,18.2-13.3c15,0,19.5,6.8,20.6,16h13.1c-0.1-18.8-14.7-27.9-33.1-27.9
		C289.8,98.4,279.5,110.8,279.5,125.4 M353.1,100.7v52c0,26.6,12.6,37.4,34.6,37.4c22.3,0,34.6-11,34.6-37.4v-52H408v53.7
		c0,17.1-7.3,23.7-21,23.7c-12.3,0-19.7-7-19.7-23.7v-53.7H353.1z M431.8,100.7v87.1h13.1v-67.7l41.7,67.7h14.9v-87.1h-13.2V168
		l-40.9-67.3H431.8z M585.7,127.8c-1.5-17.5-15.6-29.1-36.2-29.1c-25.4,0-40.6,18.4-40.6,45.2c0,31.2,17.1,46.2,39.5,46.2
		c22.7,0,35.9-15.3,37.7-33.5h-13.7c-2.8,13.8-10.4,21.3-23.2,21.3c-14.4,0-26.1-9.6-26.1-32.6c0-23.9,10.8-34.7,26.1-34.7
		c13.3,0,20.1,6.4,22.7,17.1L585.7,127.8L585.7,127.8z M591.7,144.5c0,29.7,17.1,45.9,42,45.9c26.4,0,42.5-18.8,42.5-47.2
		c0-31.4-18.4-45-42.3-45C609.8,98.2,591.7,114.4,591.7,144.5 M605.9,145c0-22.4,11.6-34.6,28.4-34.6c15.4,0,27.8,11,27.8,32.9
		c0,23.2-11.3,34.8-27.4,34.8C617,178.1,605.9,167,605.9,145 M697.3,112.5h26.2c10.3,0,15.6,4.1,15.6,13.7c0,9.9-5.3,13.9-16.9,13.9
		h-25L697.3,112.5L697.3,112.5z M683.4,100.7v87.1h13.8v-36.3h24.1c11.5,0,15.5,3.5,15.9,13.3l0.6,12.2c0.2,5.2,0.6,8.2,1.6,10.7
		h14.9c-1.9-3.5-2.7-7.3-2.9-14.9l-0.2-9.7c-0.2-10.1-2.8-14.4-10.8-17.8c8-3.6,12.7-10.7,12.7-20.7c0-14.4-8.9-23.9-28.6-23.9
		C724.5,100.7,683.4,100.7,683.4,100.7z M761.4,100.7v87.1h14v-35.1h24.4c18,0,27.3-10.1,27.3-26.2c0-16.9-10.4-25.8-26.8-25.8
		L761.4,100.7L761.4,100.7z M775.4,112.5h21.3c11.4,0,16.4,4.7,16.4,14.2c0,9.7-5.3,14.4-16.4,14.4h-21.3V112.5L775.4,112.5z"/>
</g>
<radialGradient id="SVGID_1_" cx="959.8" cy="146.8" r="115" gradientTransform="matrix(1 0 0 -1 0 292)" gradientUnits="userSpaceOnUse">
	<stop  offset="0" style="stop-color:#FFCD05"/>
	<stop  offset="0.5" style="stop-color:#FFCD05;"/>
	<stop  offset="0.65" style="stop-color:#FFCD05;stop-opacity:0.5"/>
	<stop  offset="0.8" style="stop-color:#FFCD05;stop-opacity:0.2"/>
	<stop  offset="0.9" style="stop-color:#FFCD05;stop-opacity:0.075"/>
	<stop  offset="1" style="stop-color:#FFCD05;stop-opacity:0.0"/>
</radialGradient>
<path fill="url(#SVGID_1_)" d="M959.8,30.2c-63.5,0-115,51.5-115,115s51.5,115,115,115s115-51.5,115-115S1023.3,30.2,959.8,30.2z
	 M959.8,202.7c-31.8,0-57.5-25.7-57.5-57.5s25.7-57.5,57.5-57.5s57.5,25.7,57.5,57.5S991.5,202.7,959.8,202.7z"/>
</svg>
