<?xml version="1.0" standalone="no"?>
<!DOCTYPE svg PUBLIC "-//W3C//DTD SVG 20010904//EN"
 "http://www.w3.org/TR/2001/REC-SVG-20010904/DTD/svg10.dtd">
<svg version="1.0" xmlns="http://www.w3.org/2000/svg"
 width="700.000000pt" height="700.000000pt" viewBox="0 0 700.000000 700.000000"
 preserveAspectRatio="xMidYMid meet">
<metadata>
Created by potrace 1.11, written by Peter Selinger 2001-2013
</metadata>
<g transform="translate(0.000000,700.000000) scale(0.100000,-0.100000)"
fill="#000000" stroke="none">
<path d="M211 4839 c37 -40 76 -123 109 -234 43 -143 69 -234 83 -285 14 -50
80 -280 314 -1090 46 -162 86 -302 88 -310 27 -113 125 -422 152 -477 58 -119
164 -208 303 -255 64 -21 75 -22 757 -24 l692 -3 -34 30 c-35 31 -97 135 -133
224 -11 28 -57 165 -102 305 -45 140 -106 329 -135 420 -83 257 -215 666 -351
1095 -25 77 -61 187 -81 245 -82 243 -177 345 -358 387 -16 3 -325 8 -686 9
l-656 3 38 -40z"/>
<path d="M5481 4864 c-132 -27 -223 -97 -288 -220 -32 -60 -82 -205 -218 -629
-42 -132 -105 -328 -140 -435 -35 -107 -102 -316 -150 -465 -253 -787 -275
-842 -367 -927 l-29 -26 667 0 c728 1 742 2 861 59 84 40 180 134 222 216 18
36 80 231 147 465 64 222 120 418 126 437 5 18 11 41 13 50 2 9 45 158 95 331
51 173 93 322 95 330 2 8 44 153 93 321 92 319 128 410 181 471 l32 37 -638
-1 c-488 -1 -653 -4 -702 -14z"/>
<path d="M2791 4860 c-3 -3 -6 -610 -6 -1350 l0 -1345 717 -2 717 -1 -2 1351
-2 1351 -708 1 c-390 0 -712 -2 -716 -5z"/>
</g>
</svg>
