<?xml version="1.0" standalone="no"?>
<!DOCTYPE svg PUBLIC "-//W3C//DTD SVG 20010904//EN"
 "http://www.w3.org/TR/2001/REC-SVG-20010904/DTD/svg10.dtd">
<svg version="1.0" xmlns="http://www.w3.org/2000/svg"
 width="700.000000pt" height="700.000000pt" viewBox="0 0 700.000000 700.000000"
 preserveAspectRatio="xMidYMid meet">
<metadata>
Created by potrace 1.11, written by Peter Selinger 2001-2013
</metadata>
<g transform="translate(0.000000,700.000000) scale(0.100000,-0.100000)"
fill="#000000" stroke="none">
<path d="M985 4590 l-150 -5 -1 -30 c-1 -16 2 -32 6 -35 5 -3 67 -5 139 -4 86
0 131 -3 131 -10 4 -78 -1 -1575 -5 -1611 -29 -265 -125 -376 -341 -391 -88
-7 -144 8 -184 48 -42 41 -50 66 -56 163 -11 193 -39 236 -154 237 -65 0 -112
-29 -141 -88 -31 -66 -24 -178 16 -253 74 -136 243 -202 517 -202 256 1 401
43 506 148 69 69 124 192 138 308 1 11 5 45 9 75 4 30 7 397 7 815 l1 761 143
0 144 -1 0 38 0 37 -122 0 c-68 0 -197 2 -288 3 -91 1 -232 0 -315 -3z"/>
<path d="M2245 4558 c2 -18 3 -35 4 -38 0 -3 52 -4 113 -4 62 1 118 -1 124 -3
8 -3 11 -261 10 -896 l-1 -893 -26 -49 c-32 -63 -102 -102 -199 -111 -36 -4
-67 -8 -69 -10 -2 -2 -4 -23 -5 -48 l-1 -44 462 -1 463 -1 0 48 0 49 -72 7
c-106 9 -174 46 -207 111 l-26 49 0 316 0 315 161 1 c89 1 195 4 235 8 393 33
602 175 664 448 20 87 19 268 -2 365 -44 213 -172 328 -426 386 -86 19 -131
21 -648 24 l-556 4 2 -33z m935 -63 c205 -36 331 -131 379 -284 25 -79 31
-121 32 -226 5 -306 -126 -475 -411 -530 -58 -11 -235 -19 -342 -16 l-28 1 0
528 c0 291 3 532 8 536 8 9 305 1 362 -9z"/>
<path d="M4214 4561 c1 -16 4 -33 8 -37 4 -4 61 -7 125 -6 l118 0 -1 -876 c0
-483 -4 -893 -8 -912 -26 -111 -99 -166 -227 -169 -25 -1 -27 -4 -25 -48 l1
-48 305 0 304 0 2 43 c1 23 -2 44 -5 46 -4 3 -27 7 -51 11 -70 10 -131 52
-160 110 l-25 50 -3 781 c-3 699 -2 782 12 787 9 4 20 -1 26 -12 5 -10 178
-412 384 -892 206 -481 380 -886 387 -901 9 -21 19 -28 39 -28 15 0 32 6 37
13 5 6 114 271 242 587 128 316 238 589 246 605 7 17 40 100 74 185 34 85 66
164 71 175 5 11 29 69 54 130 24 60 49 111 56 113 8 3 10 -201 8 -775 -3 -772
-3 -778 -24 -824 -28 -61 -87 -96 -172 -105 l-62 -7 0 -47 0 -48 415 -1 c228
-1 416 2 416 6 1 5 2 27 3 51 2 39 0 42 -23 43 -142 6 -218 61 -237 169 -7 43
-14 1754 -7 1776 3 7 38 10 101 9 53 0 102 1 109 3 6 2 11 19 11 38 l0 34
-272 0 -272 0 -326 -812 c-200 -500 -331 -814 -340 -816 -10 -2 -73 135 -218
475 -112 263 -213 501 -225 528 -12 28 -77 179 -145 338 l-122 287 -302 0
-302 0 0 -29z"/>
<path d="M1705 2733 c-70 -36 -107 -90 -107 -158 0 -157 193 -228 303 -112 69
73 48 206 -41 256 -49 28 -116 34 -155 14z"/>
<path d="M3583 2730 c-44 -19 -90 -69 -99 -106 -4 -14 -4 -48 -2 -75 13 -134
193 -192 290 -94 56 58 66 133 28 205 -38 71 -141 104 -217 70z"/>
</g>
</svg>
