<svg id="Layer_1" xmlns="http://www.w3.org/2000/svg" viewBox="550 50 400 400"><style>.st1{fill:#fffffe}.st3{fill:#636463}</style><g id="Tool---Option-1"><path id="Fill-4" class="st1" d="M550.6 455.1h415.7V39.3H550.6z"/><path id="Fill-5" d="M914 249.3c6.4 4.7 13 8.1 13 15.6 0 2.2-2.8 4.3-8.9 4.3-4.7 0-9.8-1.3-12.2-4.7-1.9-2.6.9-6-.9-8.5-1.3-2.1-4.3-1.1-6.2-2.1-2.3-1.3-2.6-2.3-4.1-5.5-1.7-3.8-7.5-10.2-14.3-17.1-5.7-5.8-11.9-8.7-14.7-8.5-1.9.2-2.6.2-4.5.2-4.9 0-9.2 4.7-16.2 7.7-4.9 2.1-7.7 3.4-10.9 3.8l-1.1 1.3 6.4-.2c6 0 13.9-.9 19.8-.9 6.2 0 9.2 5.5 11.5 11.3 4.7 11.7 11.7 28.6 20 42.7 4 6.6 7.5 10.9 7.5 19 0 2.6-.2 6-3.6 6-4.7 0-16.6-4.9-16.6-10.3 0-4.1 3.2-5.8 3.2-9.8 0-2.6-3.8-2.1-4.7-4.5-3-12.6-6.6-25-13.7-32.4-3.6-3.8-4.1-5.5-7.7-5.5-1.9 0-3.8.4-5.6 1.1-9.8 3.6-22.8 14.5-39 19.4-6.2 1.9-7.2-1.7-13.6-.4h.4c-5.1 1.1-9.2 4-16.2 6-9.8 2.8-26.6 4-40.1 2.3-9.6-1.3-22-3.2-27.3-3-4 11.7-12.8 27.1-25.6 33.1-6.8 3-9 7.2-6.8 14.9 2.6 9.6 11.1 16.6 15.6 24.7 4.1 7 10.7 18.1 17.7 21.8 7 3.6 11.3 8.9 11.3 13.4 0 2.1-.9 3.4-3 3.4h-14.1c-2.1 0-3.2-1.3-3.6-2.1-1.9-3.6-.6-7-3.2-10.2-1.9-2.3-3.4-1.7-5.8-3.6-4.3-4-1.1-6.4-4.3-11.5-8.9-14.1-12.8-17.5-20.2-27.5-4.3-5.3-9.4-7.9-9.4-14.9 0-8.5 8.5-10 8.3-18.6-5.5 4.1-11.9 7.3-21.8 8.6-1.3.2-4.7 2.8-6.2 4.5-3.4 3.4-4.7 6.8-5.1 11.9-1.1 11.5-3.4 23.2-1.9 34.7 1.9 7.5 3.2 10 9.4 14.1 3.8 2.5 8.3 6.2 8.7 11.5 0 1.5-.4 3.2-2.6 3.2H636c-1.5 0-2.8-1.1-3.2-1.9-1.7-3-.6-5.1-1.3-8.5-1.5-7-9.4-6.6-9.4-13.8 0-2.2 1.3-4.9 1.5-9.4.4-9.8 3.4-25.6.4-44.7-1.3-11.1 10.2-11.5 16.2-21.4 3.6-5.6 2.6-3.2 4.7-7.2 2.1-4.3 1.7-7.2 1.5-9.8 0-3.2-3.2-10-1.1-23.9.9-6.2 3.8-12.4 7.9-17.7 0-.2 0-1.1-1.3-1.1-6 .4-6-1.1-10-1.1-3.8 0-6.8 3.2-7.5 4.9-1.9-.9-2.8-3-2.8-4.3 0-2.1.4-4 2.6-6.2.9-.9 0-1.3-1.1-1.3-4.7 0-9.2 5.7-10.2 9.8-2.8-.4-3-4-4.3-4-1.3 0-2.1 1.9-2.1 3.8 0 13.6 22.2 16.6 22.2 34.5 0 20.7-24.9 16.4-24.9 23.9 0 1.5 1.1 2.8 3 3.6-.9 1.9-3 2.8-5.3 2.8-5.5 0-9.6-4-9.6-9.6 0-11.3 15.1-11.5 15.1-20.1 0-4-2.5-5.3-4.9-7.2-14.5-10.2-22.6-20.5-22.6-37.3 0-18.1 12.6-32 29-32 23.9 0 24.5 27.5 46.3 29.9 8.1-5.5 17.7-8.7 27.1-8.7 14.1 0 20.2 3.6 35.2 3.6 6 0 16-1.7 27.9-9.8 4.5-3 6.4-3.6 10.4-7.3 9.4-8.1 18.1-23.9 18.1-35.2v.6c0-3.6-.9-5.8-2.6-5.8-5.1 0-9.6 4.7-14.7 9.6-3.2 3.4 1.7 4.9-5.5 8.9-2.6 1.3-5.5-1.1-8.3-1.1-5.8 0-8.3-6.8-8.3-12.8 0-3 2.3-3.8 3.6-6.6 3-5.8 2.8-7.9 5.5-13.6 1.7-3.8 4.7-6.4 4.5-9.2 0-1.1-.9-1.7-.9-2.8 0-5.8 7.7-9.6 7.7-15.4 0-3.2-3.6-4.7-4.5-7.2-.9-2.6-.2-3.2-.2-3.2.2-.4.6-.6 1.1-.6 3 0 4.3 3.2 7 4.9.2-3.8-1.1-4.7-1.1-7.5 0-1.5-.2-3.8 1.3-3.8 1.9 0 1.7 2.6 3.4 3.8 2.1 1.7 4 1.5 6.4 3 3 1.9 4.7 5.1 5.7 5.3 3 .4 3.8-3.2 2.3-5.3 3.4-.2 6.8 2.6 11.3 2.6 7 0 9.4 1.9 10.7 3 4.5 3.8 5.3 6.8 10.2 6.8 2.6 0 3.8-2.1 4.5-3 3.4 2.6 3.6 8.9 0 14.3 1.5 4.5 7.9 4.9 10.9 7.1 3 2.1 2.6 3.2 4.7 4.5 1.7 1.1 3.2.9 4.5 0 1.5 6-3.6 11.3-9.8 12.1.2 7.7 8.3 12.4 11.9 14.3-2.1 4.7-6 6.2-9.4 7 1.1 4.7 6.2 11.5 3.6 17.7-2.3-1.1-5.7 0-5.7 3.4 0 3.8 4.9 5.8-.2 8.6-2.4 1.3-2.8 4.7 1.5 7.9 5.5-1.5 10.9-1.3 17-1.3 3.8 0 9-1.1 12.4-1.1 6.4 0 10.3 2.6 14.9 7.7 12.3 12.6 22.9 26 35.1 35.2" fill="#1a1919"/><path id="Fill-6" class="st3" d="M596.5 213.5c2.7 0 7.7-13.5 17.9-13.5 3 0 3.6 1 3.6 2 0 1.8-3.4 3.5-3.4 5.9 0 .4.2 1 1.1 1 2.5 0 4.3-4.9 14.5-4.9 2.7 0 5 .2 7.5.8 1.1.2 3.4 1.2 2.5-1.6-2.5-6.3-10.2-12.3-21.1-12.3-10.9 0-22.2 8.8-23.6 19.4-.1 2-.1 3.2 1 3.2"/><path id="Fill-7" class="st3" d="M778 129.6c-2.7-1.1-3.1-2.6-2.3-6 .6-3.6.8-5.1-.8-5.5-1.4-.4-3.3.4-5.1 2.6-1.6 2.3-4.3 5.1-5.1 7.4-.8 3 2.7 2.6.2 7.5-4.3 8.1-5.3 9.8-7.4 15.5-1.8 5.9-3.3 6.8-4.3 8.7-1.2 1.7 1.6 1.9 4.9.9 3.5-1.3 3.7 3 2.5 5.9-1 2.1-.2 3 2.7.6 2.7-2.1-1.4-3.8-.4-10.6 1-6.2 2.3-9.6 6-15.7 3.1-5.3 5.8-9.1 11.1-7.2 1.9 1 .9-2.9-2-4.1"/><path id="Fill-8" class="st3" d="M892.2 309c.9 0 1.1-1.4 1.1-2.6 0-2.7-1.4-6.9-3.3-8.7-.5 4.1-2.3 6.9-2.3 8.7-.1 1.4 3.3 2.6 4.5 2.6"/><path id="Fill-9" class="st3" d="M918 264c1.3 0 3.3-.7 3.3-2.2 0-2.9-3-7.9-5.6-9.1 1.8 5.1 0 11.3 2.3 11.3"/><path id="Fill-10" class="st3" d="M800 209.1c23.9 11 22.4 31.1 24.5 26 .8-2.1 4-12.1-4.4-21.6-6.6-7.6-9.1-5.7-6.6-12.1 10.4-25.2 16.9-63.3-14.2-76.7-3.6-1.5-6.6-1.5-6.6-.8 0 .6 3.4 1.7 7.4 4.4 20.7 13.8 14.4 51.2-4.7 69.4-6.2 6.3-3.2 7.8 4.6 11.4"/><path id="Fill-11" class="st3" d="M718.3 387.6c1.3 0 .6-3.2.2-4.6-1.1-3.2-3.2-5.3-5-6.7.5 3.2.6 11.2 2.6 11.2h2.2"/><path id="Fill-12" class="st3" d="M645.5 387.6c1.2 0 .3-3.3-.1-4.7-1.1-3.3-3.2-5.2-4.9-6.6.5 3.3.8 11.2 2.6 11.2h2.4"/><path id="Fill-13" class="st3" d="M737.5 235.3c13.5-1.4 15.6-4.1 18-13.2 1.1-4.3 4.6-8.7 7.6-11.7 2-1.9 3.9-3.5 5.9-6.4.7-1.2 1.1-2.1 0-1.7-1.5 1-6.1 3.7-8 5-9.6 6-24.1 8.9-30 8.9-12.4 0-23.1-3.3-34.4-3.3-33.9 0-46.5 23.7-44.8 37.5.2 2.1.6 2.3 1.5 2.3 2.4 0 4.4-8.2 12.8-15.3 12.4-10.5 25.9-16.5 45-16.5 13.9 0 19.6 4.1 19.6 5.6 0 3.1-5.9 3.3-5.5 6.4.1 1.1 3.4 3.4 12.3 2.4"/></g></svg>