<svg width="1186" height="1186" viewBox="0 0 1186 1186" fill="none" 
    xmlns="http://www.w3.org/2000/svg">
    <path d="M289.873 420.821H240.923V660.919C240.923 751.095 209.179 778.215 128.701 778.215C61.2378 777.998 35.0001 751.981 35.0001 718.248C35.0001 710.527 37.8636 685.617 62.5572 685.617C87.0303 685.617 88.5744 702.153 88.5744 729.052C88.5744 740.294 93.2068 762.341 122.087 762.341C167.949 762.341 188.452 741.397 188.452 667.316V420.821H141.27V408.031H289.873V420.821ZM299.796 720.891C291.638 720.891 284.583 723.533 279.073 729.269C273.342 735 270.474 741.834 270.474 749.992C270.474 758.149 273.342 764.984 279.073 770.278C284.804 776.009 291.638 778.656 299.796 778.656C307.953 778.656 314.788 776.013 320.743 770.278C326.475 764.984 329.338 758.149 329.338 749.992C329.338 741.614 326.475 735 320.743 729.269C315.012 723.538 308.17 720.891 299.796 720.891ZM618.386 720.891C610.229 720.891 603.395 723.533 597.663 729.269C591.932 735.004 589.281 741.834 589.281 749.992C589.281 758.149 591.928 764.984 597.663 770.278C603.615 776.009 610.449 778.656 618.386 778.656C626.544 778.656 633.599 776.013 639.33 770.278C645.061 764.984 647.929 758.149 647.929 749.992C647.929 741.614 645.061 735 639.33 729.269C633.599 723.538 626.544 720.891 618.386 720.891ZM526.005 408.031C639.992 408.031 659.396 451.021 659.396 512.316C659.396 572.949 627.864 617.263 515.2 617.263L476.397 617.484V708.979C476.397 720.225 477.721 725.739 480.368 731.908C483.231 739.183 489.408 744.698 498.664 748.444C505.278 750.87 515.425 752.194 528.652 752.631V768.95H372.112V752.631C385.339 752.194 395.261 750.866 401.875 748.002C410.694 744.252 416.646 738.742 419.297 731.466C421.72 725.073 423.043 723.971 423.043 701.924V420.817H380.27V408.248L526.005 408.031ZM505.94 603.378C574.73 603.378 608.901 573.615 608.901 515.408C608.901 457.422 589.939 421.924 503.072 421.924L476.177 422.361V603.595H505.94V603.378ZM1106.96 730.592C1104.98 724.199 1103.88 716.258 1103.88 706.119V420.821H1141.58V408.031H1049.64C1048.53 411.34 938.954 683.852 938.954 683.852C938.712 684.292 938.363 684.665 937.939 684.935C937.514 685.204 937.029 685.363 936.528 685.396C935.204 685.396 934.322 684.734 933.885 683.852C933.885 683.852 817.471 411.34 816.152 408.031H714.069V420.596H756.405V694.873C756.405 694.873 755.523 720.229 755.523 720.449C754.861 727.063 752.655 733.019 749.346 737.868C745.821 742.941 740.306 746.908 733.031 749.555C728.178 751.099 720.907 752.198 712.087 752.418V768.734H815.931V752.418C807.337 751.981 803.587 751.099 798.513 749.555C791.017 747.128 785.503 743.378 781.757 738.088C778.448 733.235 776.242 727.283 775.58 720.229C775.58 720.229 774.477 694.873 774.477 694.653V458.517H780.429C780.429 458.517 911.834 765.425 913.378 768.954H924.4L1048.97 462.046H1052.06V706.115C1052.06 716.699 1050.95 725.078 1048.97 731.471C1046.54 738.966 1041.25 744.481 1033.54 748.227C1027.81 750.87 1019.21 752.198 1007.75 752.635V768.954H1149.73V752.635C1138.27 751.977 1129.45 750.654 1123.5 748.007C1114.68 743.824 1109.39 738.088 1106.96 730.592Z" fill="#FFFFFF"/>
</svg>
