<svg width="735" height="195" viewBox="0 0 735 195" fill="none" xmlns="http://www.w3.org/2000/svg">
<path d="M54.3999 190.822C23.696 186.311 3.53027 162.352 3.53027 130.382C3.53027 104.134 18.6837 81.9252 42.0864 73.8735C57.948 68.4163 74.7065 68.939 87.8765 75.3018C94.7512 78.6232 106.53 87.9527 106.53 90.0762C106.53 90.6391 103.569 94.6495 99.9504 98.9883L93.3708 106.877L88.7004 102.993C76.7805 93.0797 64.0764 90.8095 49.8833 96.0566C39.221 99.9985 30.8871 110.973 28.4551 124.276C25.6021 139.882 33.168 156.69 46.1638 163.617C60.2034 171.1 75.1257 169.476 88.261 159.035L93.4917 154.876L99.761 162.489C103.209 166.676 106.196 170.551 106.398 171.099C107.054 172.881 95.5918 182.737 89.2288 185.862C78.5324 191.114 67.2898 192.715 54.3999 190.822ZM352.03 190.556C344.983 188.206 339.314 184.801 333.854 179.637L328.53 174.603V181.748V188.893H321.53H314.53V111.979V35.0649L320.943 31.479C324.47 29.5066 327.62 27.8926 327.943 27.8926C328.266 27.8926 328.53 41.716 328.53 58.6113V89.3301L334.28 83.6699C345.026 73.0926 358.906 68.3293 371.667 70.8398C386.146 73.6884 395.279 82.037 400.832 97.4995C403.968 106.233 405.533 116.978 405.523 129.715C405.5 158.955 395.284 180.623 377.731 188.658C371.141 191.676 358.246 192.628 352.03 190.556ZM374.891 176.527C386.284 169.85 391.546 155.306 391.513 130.577C391.487 110.835 388.594 100.001 380.971 91.0947C375.749 84.9935 369.634 82.4272 360.46 82.4868C350.715 82.5502 342.124 86.3397 334.094 94.1167L328.53 99.5059V130.559V161.611L332.515 166.138C340.822 175.575 351.073 180.049 363.175 179.52C368.745 179.276 371.326 178.616 374.891 176.527ZM446.276 190.807C440.664 189.485 433.435 185.494 429.834 181.732C428.077 179.895 425.39 175.693 423.863 172.393C421.395 167.056 421.085 165.23 421.059 155.874C421.032 145.944 421.217 144.975 424.364 138.581C429.922 127.288 439.962 121.064 456.282 118.794C467.762 117.198 481.94 119.433 491.417 124.334L494.53 125.944V114.6C494.53 91.2187 488.239 83.0525 469.492 82.1016C460.011 81.6207 451.782 83.2607 442.605 87.46C439.621 88.8254 436.837 89.5936 436.419 89.1675C436 88.7413 434.737 86.2357 433.611 83.5996L431.565 78.8071L436.298 76.7607C446.144 72.5036 455.52 70.6697 468.03 70.5537C486.132 70.3858 495.548 74.1499 502.786 84.4487C508.209 92.1654 508.506 95.2483 508.519 144.143L508.53 188.893H501.53H494.53V181.105V173.318L489.202 178.355C477.402 189.51 460.982 194.273 446.276 190.807ZM470.07 179.341C477.765 177.337 483.852 173.723 489.777 167.639L494.53 162.759V149.436V136.113L489.78 133.876C483.17 130.764 469.568 128.557 460.919 129.194C447.836 130.157 438.019 136.674 435.473 146.086C433.938 151.764 434.751 163.494 436.986 167.893C442.721 179.18 454.73 183.335 470.07 179.341ZM202.023 188.542C199.269 187.259 195.5 184.484 193.648 182.374C187.009 174.813 187.081 175.312 186.53 132.893L186.03 94.3926L175.78 94.1079L165.53 93.8228V82.8579V71.8926H176H186.469L186.75 59.8032L187.03 47.7134L198.28 41.7173L209.53 35.7217V53.8071V71.8926H222.03H234.53V82.8618V93.8311L222.28 94.1118L210.03 94.3926V128.438C210.03 166.514 210.043 166.587 217.005 168.884C221.425 170.343 229.031 168.902 235.248 165.427C240.463 162.512 240.472 162.567 237.057 175.872C235.588 181.595 233.919 185.867 232.844 186.652C226.513 191.282 210.071 192.29 202.023 188.542ZM120.53 130.393V71.8926H132.53H144.53V130.393V188.893H132.53H120.53V130.393ZM258.53 130.393V71.8926H270.53H282.53V130.393V188.893H270.53H258.53V130.393ZM536.53 130.893V72.8926H543.53H550.53L550.583 81.6426C550.633 90.1117 550.688 90.3123 552.276 87.8926C553.179 86.5176 556.236 83.0885 559.069 80.2725C567.363 72.028 579.316 68.6052 592.061 70.8247C608.252 73.6441 617.226 82.1714 622.138 99.4023C623.588 104.489 623.911 111.688 624.281 147.143L624.715 188.893H617.718H610.72L610.24 148.643C609.931 122.755 609.341 106.737 608.587 103.752C607.943 101.2 605.978 96.7121 604.223 93.7803C601.662 89.5041 599.857 87.8508 595.101 85.4214C589.885 82.7573 588.2 82.4024 581.101 82.4717C565.586 82.6233 556.692 90.1188 552.478 106.597C550.719 113.477 550.53 117.82 550.53 151.553V188.893H543.53H536.53V130.893ZM652.53 112.01V35.1265L658.602 31.5098C661.941 29.5205 664.979 27.8924 665.352 27.8921C665.725 27.8919 665.885 47.1294 665.708 70.6421C665.531 94.1549 665.685 118.841 666.051 125.5L666.715 137.607L677.373 121.919C683.234 113.291 693.205 98.7392 699.53 89.5806L711.03 72.9287L718.765 72.9106L726.5 72.8926L712.404 92.1426C704.651 102.73 698.076 111.978 697.793 112.693C697.265 114.027 700.108 120.283 720.66 162.998C727.189 176.567 732.53 187.945 732.53 188.281C732.53 188.618 729.268 188.889 725.28 188.884L718.03 188.875L705.695 162.634C698.911 148.201 692.119 133.964 690.603 130.995L687.847 125.597L677.189 140.477L666.53 155.357V172.125V188.893H659.53H652.53V112.01Z" fill="#003A75" stroke="#123764"/>
<path d="M105.697 51.9527C106.492 49.7094 117.357 37.5177 123.016 32.5181C146.066 12.1557 171.131 2.50507 201.03 2.47957C217.217 2.46577 226.978 4.17633 241.53 9.57723C261.873 17.127 280.433 30.62 293.203 47.1427L297.647 52.8927H283.776H269.905L266.968 49.8126C258.724 41.1678 241.134 30.8803 228.03 27.0396C213.067 22.6538 200.648 21.8715 186.14 24.4014C167.5 27.6519 152.816 34.7741 137.395 48.0435L131.759 52.8927H118.561C110.751 52.8927 105.5 52.5091 105.697 51.9527Z" fill="#CE011B" stroke="#AA0815"/>
</svg>
