<svg width="47" height="47" viewBox="0 0 47 47" fill="none" xmlns="http://www.w3.org/2000/svg">
<path d="M23.4888 46.9763C36.46 46.9763 46.9763 36.4588 46.9763 23.4888C46.9763 10.5188 36.46 5.72205e-06 23.4888 5.72205e-06C10.5175 5.72205e-06 0 10.5188 0 23.4888C0 36.4588 10.5175 46.9763 23.4888 46.9763Z" fill="#990033"/>
<path d="M23.2578 23.2281L13.1528 36.6194H28.8065C32.504 36.6194 35.5003 33.6156 35.5003 29.9169C35.5003 26.2194 32.504 23.2206 28.8065 23.2206V23.2244C32.504 23.2244 35.5003 20.2281 35.5003 16.5331C35.5003 12.8331 32.504 9.82813 28.8065 9.82813H13.1528L23.2578 23.2194V23.2281Z" fill="#FFCC00"/>
<path d="M13.152 12.4948V15.1685L19.2195 23.2285L13.152 31.271V33.9835L21.2395 23.2285L13.152 12.4948Z" fill="#FFCC00"/>
<path d="M13.152 25.9067V28.5892L17.2008 23.228L13.152 17.828V20.5492L15.1808 23.228L13.152 25.9067Z" fill="#FFCC00"/>
</svg>
