<svg width="279" height="47" viewBox="0 0 279 47" fill="none" 
    xmlns="http://www.w3.org/2000/svg">
    <g clip-path="url(#clip0)">
        <path d="M23.4888 46.9763C36.46 46.9763 46.9763 36.4588 46.9763 23.4888C46.9763 10.5188 36.46 5.72205e-06 23.4888 5.72205e-06C10.5175 5.72205e-06 0 10.5188 0 23.4888C0 36.4588 10.5175 46.9763 23.4888 46.9763Z" fill="#990033"/>
        <path d="M23.2578 23.2281L13.1528 36.6194H28.8065C32.504 36.6194 35.5003 33.6156 35.5003 29.9169C35.5003 26.2194 32.504 23.2206 28.8065 23.2206V23.2244C32.504 23.2244 35.5003 20.2281 35.5003 16.5331C35.5003 12.8331 32.504 9.82813 28.8065 9.82813H13.1528L23.2578 23.2194V23.2281Z" fill="#FFCC00"/>
        <path d="M13.152 12.4948V15.1685L19.2195 23.2285L13.152 31.271V33.9835L21.2395 23.2285L13.152 12.4948Z" fill="#FFCC00"/>
        <path d="M13.152 25.9067V28.5892L17.2008 23.228L13.152 17.828V20.5492L15.1808 23.228L13.152 25.9067Z" fill="#FFCC00"/>
        <path d="M62.2513 31.6964H66.5838C67.7213 31.6964 69.165 31.7714 70.1388 31.1076C71.0388 30.5226 71.5463 29.4264 71.5463 28.3351C71.5463 27.3214 70.9213 26.2664 70.0225 25.7576C69.125 25.2501 67.875 25.2501 66.86 25.2501H62.2513V31.6964ZM62.2513 20.4889H66.5063C67.6013 20.4889 68.89 20.5626 69.8263 19.8626C70.5713 19.3164 70.9588 18.3376 70.9588 17.4451C70.9588 16.4639 70.49 15.5264 69.6313 15.0201C68.7337 14.5126 67.0925 14.6289 66.0388 14.6289H62.2513V20.4889ZM67.99 9.86012C70.1013 9.86012 72.2888 9.86012 74.1225 11.0339C76.2713 12.4001 77.4063 14.3576 77.4063 16.8926C77.4063 19.9414 75.3725 21.9676 72.56 22.6714V22.7514C75.8813 23.4126 78.1475 25.9514 78.1475 29.4264C78.1475 31.7714 76.7388 33.8426 74.865 35.2076C72.9125 36.6539 70.2963 36.6539 67.99 36.6539H56.0013V9.86012H67.99Z" fill="#990033"/>
        <path d="M92.4368 24.3111C92.3205 22.1649 91.6193 20.1724 89.1168 20.1724C86.5818 20.1724 85.603 22.0474 85.4043 24.3111H92.4368ZM85.448 27.7124L85.4043 28.6874C85.4043 31.0311 86.7368 32.9411 89.2355 32.9411C90.9943 32.9411 92.7493 31.6536 92.7493 29.8149L98.0605 30.2099C98.0605 31.1861 95.7568 37.0449 89.038 37.0449C83.1043 37.0449 79.2355 32.9036 79.2355 27.0099C79.2355 21.1486 82.7118 16.4249 88.8818 16.4249C91.6543 16.4249 94.5068 17.6724 96.148 19.9411C97.788 22.2061 98.2168 25.0149 98.178 27.7124H85.448Z" fill="#990033"/>
        <path d="M105.357 16.8177V20.1715H105.433C106.607 17.634 108.248 16.4252 111.137 16.4252C113.011 16.4252 114.848 17.009 116.018 18.614C117.115 20.0965 117.115 22.594 117.115 24.389V36.654H111.37V25.9927C111.37 23.9552 111.645 20.9927 108.756 20.9927C107.74 20.9927 106.802 21.5802 106.333 22.4765C105.748 23.6102 105.67 24.7415 105.67 25.9927V36.654H99.9283V16.8177H105.357Z" fill="#990033"/>
        <path d="M131.088 25.6417C131.088 23.7242 130.933 20.4455 128.314 20.4455C125.034 20.4455 124.917 24.7405 124.917 27.1255C124.917 29.2705 125.229 32.903 128.079 32.903C129.133 32.903 130.112 32.203 130.579 31.303C131.049 30.4055 131.088 29.3505 131.088 28.3717V25.6417ZM131.362 36.6542V33.568H131.284C130.189 35.6792 128.55 37.0455 126.008 37.0455C120.427 37.0455 118.863 31.5742 118.863 26.9705C118.863 22.2417 120.345 16.4255 126.127 16.4255C128.354 16.4255 129.838 17.0917 131.088 18.9242V9.86172H136.829V36.6542H131.362Z" fill="#990033"/>
        <path d="M144.907 15.0195H139.164V9.47449H144.907V15.0195ZM144.907 36.6532H139.164V16.817H144.907V36.6532Z" fill="#990033"/>
        <path d="M152.551 36.5356C151.848 36.8068 151.305 37.3556 151.305 38.1356C151.305 39.0731 151.928 39.5018 152.748 39.7393C154 40.0906 155.793 40.1306 157.043 40.1306C158.45 40.1306 162.43 40.2481 162.43 38.2143C162.43 37.1618 161.146 36.9281 160.326 36.8481L152.551 36.5356ZM153.413 22.5531C153.413 24.5056 154.664 25.5606 156.575 25.5606C158.45 25.5606 160.013 24.5468 160.013 22.5181C160.013 20.5231 158.373 19.5906 156.575 19.5906C154.74 19.5906 153.413 20.6806 153.413 22.5531ZM153.606 28.4493C153.06 28.7643 152.63 29.2306 152.63 29.8943C152.63 30.7181 153.021 31.1856 153.764 31.4218C154.778 31.6968 156.889 31.7718 158.021 31.8106L160.523 31.9268C163.994 32.1268 167.903 32.8643 167.903 37.1981C167.903 39.8531 165.988 41.6518 163.725 42.5868C161.573 43.4868 158.763 43.6443 156.419 43.6443C153.255 43.6443 146.189 43.5281 146.189 39.0356C146.189 37.0093 147.826 35.8343 149.623 35.4431C148.101 34.7018 147.084 33.6468 147.084 31.8893C147.084 29.4268 149.078 28.2968 151.069 27.4768C148.921 26.6556 147.553 25.0143 147.553 22.6343C147.553 17.8318 152.788 16.4243 156.655 16.4243C158.45 16.4243 160.209 16.6993 161.925 17.2843C162.318 14.2768 163.45 13.4218 166.418 13.4218L168.018 13.5731V17.2843C167.51 17.2068 167.003 17.0906 166.494 17.0906C165.401 17.0906 164.344 17.5993 164.19 18.8056C165.284 20.0193 165.753 20.9931 165.753 22.6718C165.753 27.3568 160.714 28.7243 156.926 28.7243L153.606 28.4493Z" fill="#990033"/>
        <path d="M173.324 26.1109C173.324 28.3734 173.285 33.2184 176.565 33.2184C179.807 33.2184 179.962 29.3109 179.962 26.9284C179.962 25.3646 179.885 23.4896 179.337 22.0071C178.869 20.7196 177.933 20.2109 176.604 20.2109C173.519 20.2109 173.324 23.8446 173.324 26.1109ZM186.133 26.8909C186.133 32.5521 182.425 37.0446 176.565 37.0446C170.473 37.0446 167.153 32.4321 167.153 26.6946C167.153 20.9121 170.513 16.4246 176.565 16.4246C182.774 16.4246 186.133 21.0309 186.133 26.8909Z" fill="#990033"/>
        <path d="M200.823 31.1478H205.159C206.293 31.1478 207.735 31.2241 208.711 30.5591C209.61 29.9766 210.119 28.8778 210.119 27.7891C210.119 26.7728 209.493 25.7178 208.594 25.2091C207.696 24.7028 206.444 24.7028 205.43 24.7028H200.823V31.1478ZM200.823 19.9428H205.081C206.173 19.9428 207.461 20.0153 208.398 19.3153C209.144 18.7678 209.531 17.7903 209.531 16.8978C209.531 15.9153 209.064 14.9803 208.205 14.4716C207.306 13.9653 205.668 14.0816 204.611 14.0816H200.823V19.9428ZM206.561 9.3141C208.673 9.3141 210.86 9.3141 212.696 10.4866C214.843 11.8528 215.974 13.8103 215.974 16.3466C215.974 19.3928 213.943 21.4191 211.134 22.1228V22.2028C214.453 22.8653 216.718 25.4053 216.718 28.8778C216.718 31.2241 215.314 33.2966 213.436 34.6603C211.484 36.1053 208.868 36.1053 206.561 36.1053H194.573V9.3141H206.561Z" fill="#990033"/>
        <path d="M230.304 26.6155C228.117 26.8493 224.096 27.3568 224.096 30.248C224.096 31.8068 225.034 32.8643 226.634 32.8643C227.807 32.8643 228.859 32.2368 229.525 31.2243C230.345 29.9768 230.304 28.803 230.304 27.398V26.6155ZM230.852 36.1043C230.616 35.0905 230.541 34.0355 230.58 33.023C228.94 35.3605 227.221 36.498 224.252 36.498C220.736 36.498 218.002 34.6205 218.002 30.8743C218.002 27.9443 219.84 25.9543 222.455 24.9768C224.721 24.1193 227.884 23.9568 230.304 23.7268V23.258C230.304 22.3993 230.384 21.3793 229.799 20.6393C229.29 19.9768 228.312 19.7043 227.455 19.7043C225.62 19.7043 224.02 20.6393 224.02 22.5918L218.587 22.0855C219.177 17.2855 223.862 15.8768 228.04 15.8768C230.074 15.8768 232.727 16.3455 234.327 17.6743C236.359 19.3155 236.165 21.4993 236.165 23.883V33.1368C236.165 34.153 236.241 35.1318 236.555 36.1043H230.852Z" fill="#990033"/>
        <path d="M244.319 16.2709V19.6259H244.395C245.57 17.0872 247.207 15.8759 250.099 15.8759C251.977 15.8759 253.808 16.4622 254.98 18.0672C256.077 19.5472 256.077 22.0472 256.077 23.8422V36.1047H250.332V25.4447C250.332 23.4084 250.607 20.4459 247.715 20.4459C246.703 20.4459 245.764 21.0334 245.295 21.9284C244.708 23.0634 244.633 24.1947 244.633 25.4447V36.1047H238.893V16.2709H244.319Z" fill="#990033"/>
        <path d="M278.017 36.1057H271.571L267.394 27.1195L264.192 31.0257V36.1057H258.451V9.31446H264.192V25.3632L266.066 22.7507L271.571 16.272H277.235L271.571 23.0232L278.017 36.1057Z" fill="#990033"/>
    </g>
    <defs>
        <clipPath id="clip0">
            <rect width="278.017" height="46.9762" fill="white"/>
        </clipPath>
    </defs>
</svg>
