<svg width="280" height="249" viewBox="0 0 280 249" fill="none" xmlns="http://www.w3.org/2000/svg">
<path d="M145.837 42.83L132.638 65.9559L136.916 73.5065L150.079 50.3076L145.837 42.83ZM152.346 54.2835L139.183 77.4459L142.583 83.5009H149.055L159 66.0288L152.346 54.2835ZM130.92 43.1948L119.037 64.0956H129.347L143.644 39L130.92 43.1948ZM138.122 83.5009L129.274 67.9986L119 67.9621L127.812 83.5009H138.122Z" fill="white"/>
<path fill-rule="evenodd" clip-rule="evenodd" d="M7.01373 137.514C7.1231 139.119 7.34648 140.422 7.67691 141.421C8.01199 142.421 8.48901 143.153 9.10564 143.613C9.72461 144.075 10.539 144.303 11.5536 144.303C12.5681 144.303 13.3825 144.075 14.0015 143.613C14.6205 143.153 15.0975 142.421 15.4279 141.421C15.7607 140.422 15.9817 139.119 16.0934 137.514C16.2028 135.912 16.261 133.965 16.261 131.677C16.261 129.391 16.2028 127.453 16.0934 125.865C15.9817 124.277 15.7607 122.973 15.4279 121.957C15.0975 120.942 14.6205 120.203 14.0015 119.741C13.3825 119.282 12.5681 119.051 11.5536 119.051C10.539 119.051 9.72461 119.282 9.10564 119.741C8.48901 120.203 8.01199 120.942 7.67691 121.957C7.34648 122.973 7.1231 124.277 7.01373 125.865C6.90204 127.453 6.84619 129.391 6.84619 131.677C6.84619 133.965 6.90204 135.912 7.01373 137.514ZM0.358836 124.555C0.596183 122.379 1.11974 120.511 1.92719 118.956C2.73464 117.4 3.8981 116.185 5.41992 115.311C6.94406 114.438 8.98711 114 11.5537 114C14.1227 114 16.1657 114.438 17.6852 115.311C19.207 116.185 20.3728 117.4 21.1826 118.956C21.99 120.511 22.5112 122.379 22.7509 124.555C22.9859 126.731 23.1069 129.105 23.1069 131.678C23.1069 134.283 22.9859 136.666 22.7509 138.826C22.5112 140.985 21.99 142.844 21.1826 144.399C20.3728 145.957 19.207 147.149 17.6852 147.972C16.1657 148.8 14.1227 149.213 11.5537 149.213C8.98711 149.213 6.94406 148.8 5.41992 147.972C3.8981 147.149 2.73464 145.957 1.92719 144.399C1.11974 142.844 0.596183 140.985 0.358836 138.826C0.119162 136.666 0.000488281 134.283 0.000488281 131.678C0.000488281 129.105 0.119162 126.731 0.358836 124.555Z" fill="#FFFFFE"/>
<path fill-rule="evenodd" clip-rule="evenodd" d="M37.0363 130.056C38.3976 130.056 39.5005 129.643 40.3406 128.818C41.1782 127.992 41.5994 126.705 41.5994 124.958C41.5994 123.244 41.2364 121.94 40.5058 121.052C39.7774 120.161 38.5558 119.715 36.8455 119.715H33.9927V130.056H37.0363ZM39.1284 114.667C40.8689 114.667 42.3372 114.961 43.5263 115.549C44.7153 116.136 45.674 116.906 46.4 117.86C47.1307 118.814 47.6519 119.9 47.9707 121.122C48.2872 122.347 48.4454 123.594 48.4454 124.863C48.4454 126.61 48.1848 128.135 47.6612 129.436C47.14 130.74 46.407 131.806 45.4739 132.631C44.5408 133.457 43.4053 134.077 42.0743 134.488C40.7456 134.903 39.2703 135.108 37.6554 135.108H33.9928V148.688H27.147V114.667H39.1284Z" fill="#FFFFFE"/>
<path fill-rule="evenodd" clip-rule="evenodd" d="M70.7909 120.29H58.6676V128.296H70.0766V133.916H58.6676V143.065H71.2656V148.688H51.8218V114.667H70.7909V120.29Z" fill="#FFFFFE"/>
<path fill-rule="evenodd" clip-rule="evenodd" d="M90.8537 137.967H90.9468V114.667H97.2248V148.688H89.4273L81.0596 124.865H80.9642V148.688H74.6885V114.667H82.5814L90.8537 137.967Z" fill="#FFFFFE"/>
<path fill-rule="evenodd" clip-rule="evenodd" d="M122.897 143.64C124.544 143.64 125.873 143.274 126.89 142.542C127.902 141.814 128.409 140.464 128.409 138.493C128.409 137.509 128.277 136.69 128.004 136.04C127.737 135.389 127.374 134.864 126.913 134.465C126.452 134.069 125.905 133.791 125.273 133.633C124.637 133.474 123.939 133.395 123.181 133.395H120.232V143.64H122.897ZM122.182 128.627C124.083 128.627 125.47 128.287 126.341 127.606C127.213 126.922 127.651 125.77 127.651 124.149C127.651 122.528 127.253 121.386 126.462 120.719C125.668 120.052 124.416 119.718 122.706 119.718H120.232V128.627H122.182ZM124.845 114.667C126.241 114.667 127.53 114.812 128.719 115.096C129.91 115.383 130.929 115.859 131.786 116.526C132.64 117.193 133.308 118.084 133.782 119.196C134.257 120.306 134.494 121.673 134.494 123.291C134.494 125.134 134.069 126.715 133.215 128.032C132.356 129.352 131.074 130.248 129.361 130.726V130.819C131.262 131.076 132.768 131.885 133.878 133.249C134.985 134.616 135.544 136.444 135.544 138.73C135.544 140.064 135.367 141.335 135.018 142.541C134.671 143.749 134.078 144.805 133.235 145.712C132.395 146.615 131.302 147.338 129.954 147.879C128.61 148.42 126.936 148.688 124.94 148.688H113.387V114.667H124.845Z" fill="#FFFFFE"/>
<path fill-rule="evenodd" clip-rule="evenodd" d="M153.988 135.871L150.709 120.577H150.614L147.333 135.871H153.988ZM154.893 114.667L163.877 148.688H156.748L155.177 141.494H146.144L144.576 148.688H137.446L146.43 114.667H154.893Z" fill="#FFFFFE"/>
<path fill-rule="evenodd" clip-rule="evenodd" d="M182.42 137.967H182.513V114.667H188.789V148.688H180.993L172.626 124.865H172.53V148.688H166.255V114.667H174.145L182.42 137.967Z" fill="#FFFFFE"/>
<path fill-rule="evenodd" clip-rule="evenodd" d="M200.39 128.296H200.485L209.137 114.667H216.553L207.329 129.247L217.6 148.688H209.898L202.908 134.728L200.39 138.588V148.688H193.544V114.667H200.39V128.296Z" fill="#FFFFFE"/>
<path fill-rule="evenodd" clip-rule="evenodd" d="M219.406 148.691H226.252V114.67H219.406V148.691Z" fill="#FFFFFE"/>
<path fill-rule="evenodd" clip-rule="evenodd" d="M247.504 137.967H247.597V114.667H253.873V148.688H246.078L237.71 124.865H237.615V148.688H231.339V114.667H239.23L247.504 137.967Z" fill="#FFFFFE"/>
<path fill-rule="evenodd" clip-rule="evenodd" d="M272.843 122.817C272.701 122.148 272.471 121.539 272.155 120.982C271.838 120.427 271.436 119.965 270.945 119.601C270.451 119.235 269.858 119.053 269.16 119.053C267.512 119.053 266.323 119.975 265.595 121.817C264.864 123.659 264.501 126.707 264.501 130.966C264.501 132.997 264.562 134.842 264.69 136.491C264.818 138.144 265.046 139.55 265.381 140.71C265.716 141.869 266.191 142.757 266.807 143.375C267.426 143.996 268.227 144.306 269.209 144.306C269.618 144.306 270.072 144.196 270.565 143.972C271.052 143.751 271.515 143.417 271.941 142.974C272.369 142.526 272.725 141.964 273.011 141.279C273.295 140.598 273.439 139.795 273.439 138.874V135.397H268.92V130.346H279.999V148.69H274.961V145.544H274.866C274.042 146.878 273.051 147.825 271.894 148.38C270.738 148.935 269.351 149.212 267.736 149.212C265.642 149.212 263.938 148.849 262.624 148.119C261.309 147.386 260.278 146.26 259.531 144.735C258.786 143.21 258.288 141.328 258.037 139.089C257.781 136.85 257.656 134.252 257.656 131.299C257.656 128.44 257.837 125.931 258.202 123.769C258.565 121.609 259.191 119.807 260.08 118.361C260.967 116.917 262.14 115.828 263.596 115.098C265.055 114.368 266.879 114.002 269.064 114.002C272.804 114.002 275.498 114.93 277.148 116.789C278.796 118.648 279.619 121.309 279.619 124.769H273.06C273.06 124.135 272.988 123.484 272.843 122.817Z" fill="#FFFFFE"/>
<path fill-rule="evenodd" clip-rule="evenodd" d="M8.38881 160.077V175.996H18.1643V160.077H26.5435V201.715H18.1643V183.228H8.38881V201.715H0.00952148V160.077H8.38881Z" fill="#FFFFFE"/>
<path fill-rule="evenodd" clip-rule="evenodd" d="M49.7006 186.03L45.6843 167.31H45.5702L41.554 186.03H49.7006ZM50.8059 160.077L61.803 201.715H53.0747L51.155 192.909H40.0997L38.18 201.715H29.4517L40.4487 160.077H50.8059Z" fill="#FFFFFE"/>
<path fill-rule="evenodd" clip-rule="evenodd" d="M81.3821 167.513C80.6631 166.133 79.3553 165.442 77.4542 165.442C76.4071 165.442 75.5438 165.724 74.8644 166.289C74.1849 166.853 73.652 167.765 73.2658 169.027C72.8772 170.291 72.6049 171.944 72.4513 173.985C72.2954 176.025 72.2186 178.526 72.2186 181.478C72.2186 184.629 72.3234 187.175 72.5374 189.12C72.7492 191.063 73.0819 192.57 73.5287 193.638C73.9708 194.708 74.5363 195.426 75.2157 195.795C75.8929 196.166 76.6794 196.35 77.5706 196.35C78.3082 196.35 78.997 196.224 79.6369 195.97C80.2768 195.718 80.8306 195.212 81.2937 194.454C81.7591 193.696 82.1291 192.628 82.399 191.247C82.6736 189.867 82.8062 188.05 82.8062 185.795H91.1878C91.1878 188.05 91.0133 190.189 90.6619 192.21C90.3152 194.232 89.666 196 88.712 197.516C87.7626 199.032 86.4246 200.217 84.698 201.075C82.9737 201.928 80.7329 202.355 77.9778 202.355C74.8364 202.355 72.3327 201.852 70.4734 200.839C68.6119 199.827 67.1832 198.37 66.1965 196.467C65.2076 194.564 64.5654 192.287 64.2745 189.643C63.9836 186.998 63.8394 184.083 63.8394 180.895C63.8394 177.747 63.9836 174.841 64.2745 172.177C64.5654 169.514 65.2076 167.231 66.1965 165.326C67.1832 163.42 68.6119 161.932 70.4734 160.862C72.3327 159.794 74.8364 159.26 77.9778 159.26C80.9633 159.26 83.3228 159.747 85.047 160.717C86.7713 161.69 88.0627 162.926 88.9167 164.421C89.7684 165.918 90.3036 167.534 90.5177 169.262C90.7317 170.99 90.8364 172.616 90.8364 174.132H82.4595C82.4595 171.098 82.1011 168.894 81.3821 167.513Z" fill="#FFFFFE"/>
<path fill-rule="evenodd" clip-rule="evenodd" d="M104.336 176.757H104.455L115.045 160.08H124.12L112.83 177.923L125.402 201.716H115.973L107.42 184.63L104.336 189.353V201.716H95.957V160.08H104.336V176.757Z" fill="#FFFFFE"/>
<path fill-rule="evenodd" clip-rule="evenodd" d="M147.975 186.03L143.961 167.31H143.847L139.828 186.03H147.975ZM149.083 160.077L160.077 201.715H151.351L149.429 192.909H138.374L136.454 201.715H127.728L138.723 160.077H149.083Z" fill="#FFFFFE"/>
<path fill-rule="evenodd" clip-rule="evenodd" d="M184.111 166.96H175.034V201.716H166.654V166.96H157.577V160.08H184.111V166.96Z" fill="#FFFFFE"/>
<path fill-rule="evenodd" clip-rule="evenodd" d="M196.096 160.077V175.996H205.871V160.077H214.25V201.715H205.871V183.228H196.096V201.715H187.716V160.077H196.096Z" fill="#FFFFFE"/>
<path fill-rule="evenodd" clip-rule="evenodd" d="M227.778 188.043C227.915 190.006 228.185 191.599 228.594 192.826C228.999 194.048 229.581 194.944 230.339 195.506C231.096 196.07 232.092 196.352 233.337 196.352C234.577 196.352 235.575 196.07 236.331 195.506C237.088 194.944 237.669 194.048 238.077 192.826C238.484 191.599 238.756 190.006 238.891 188.043C239.028 186.079 239.093 183.698 239.093 180.899C239.093 178.099 239.028 175.729 238.891 173.784C238.756 171.841 238.484 170.246 238.077 169.003C237.669 167.758 237.088 166.855 236.331 166.291C235.575 165.729 234.577 165.447 233.337 165.447C232.092 165.447 231.096 165.729 230.339 166.291C229.581 166.855 228.999 167.758 228.594 169.003C228.185 170.246 227.915 171.841 227.778 173.784C227.64 175.729 227.573 178.099 227.573 180.899C227.573 183.698 227.64 186.079 227.778 188.043ZM219.63 172.177C219.921 169.516 220.561 167.231 221.55 165.326C222.541 163.42 223.966 161.935 225.829 160.864C227.691 159.796 230.19 159.26 233.336 159.26C236.475 159.26 238.977 159.796 240.838 160.864C242.702 161.935 244.128 163.42 245.115 165.326C246.106 167.231 246.746 169.516 247.037 172.177C247.328 174.841 247.475 177.747 247.475 180.897C247.475 184.085 247.328 187 247.037 189.643C246.746 192.287 246.106 194.564 245.115 196.467C244.128 198.372 242.702 199.83 240.838 200.839C238.977 201.852 236.475 202.358 233.336 202.358C230.19 202.358 227.691 201.852 225.829 200.839C223.966 199.83 222.541 198.372 221.55 196.467C220.561 194.564 219.921 192.287 219.63 189.643C219.34 187 219.195 184.085 219.195 180.897C219.195 177.747 219.34 174.841 219.63 172.177Z" fill="#FFFFFE"/>
<path fill-rule="evenodd" clip-rule="evenodd" d="M272.203 188.594H272.319V160.077H280V201.715H270.457L260.217 172.559H260.1V201.715H252.419V160.077H262.078L272.203 188.594Z" fill="#FFFFFE"/>
<path fill-rule="evenodd" clip-rule="evenodd" d="M0.0107422 222.53H279.999V213.124H0.0107422V222.53Z" fill="#E15B3D"/>
</svg>
